<svg height="64" viewBox="0 0 63 64" width="63" xmlns="http://www.w3.org/2000/svg" xmlns:xlink="http://www.w3.org/1999/xlink"><mask id="a" fill="#fff"><path d="m0 0h64v64h-64z" fill="#fff" fill-rule="evenodd"/></mask><mask id="b" fill="#fff"><path d="m0 0h20.982v63.966h-20.982z" fill="#fff" fill-rule="evenodd"/></mask><g fill="none" fill-rule="evenodd" mask="url(#a)" transform="translate(-1)"><g transform="translate(1)"><path d="m11.4794667 9.98918788h7.196606c-.9596363-1.41151515-2.2016969-2.09309091-3.8161212-2.01709091-1.4518788.06836364-2.5712727.72666667-3.3804848 2.01709091zm3.608606 1.86909092c-.884 0-1.7694545-.0275152-2.6511515.017697-.2484848.0127272-.5784242.1763636-.7140606.3770909-1.0726061 1.5878788-.7441212 3.8349091.7067879 5.0887272 1.5625454 1.3503031 3.7212121 1.3486061 5.2764848-.0038787 1.4448485-1.2566061 1.7681212-3.5191516.6957576-5.0952728-.1294545-.190303-.4322424-.356-.6626667-.3670303-.8820606-.0425454-1.7672727-.0172121-2.6511515-.0173333zm-13.17890906 52.1078788v-40.6124849c-.30436364 0-.61757576.0116364-.92969697-.0025454-.58581818-.0264243-.99260606-.4215758-.97915152-.9328485.01321212-.4964849.39430303-.8489697.96569697-.8751515.2969697-.0135758.5950303-.0024243.9390303-.0024243v-2.0455757c-.73139394-.1755152-1.91975757.2573333-1.86424242-1.0309091.0489697-1.1406061 1.12242424-.7418182 1.87793939-.8787879.01127273-.1966061.03175758-.3898182.03187879-.5831515.0019394-3.2670303.01212121-6.5341818-.00218182-9.80109092 0 0 .04981819-3.2670303 2.08036364-5.12084849 1.9569697-1.89418181 4.29406061-2.53090909 6.8928485-1.76133333 2.6173333.7750303 4.262303 2.58266667 4.8682424 5.26618182.105697.46775757.2985455.62981818.7455758.74581818 2.0524848.53272727 3.4515151 1.82169697 4.2069091 3.80933334.0684848.1802424.1591515.352.2396363.5276364v.4841212c-.1978182.2420606-.3957576.4841212-.6509091.7963636.6383031 1.4772121.733697 3.0612121.0644849 4.6532121-.4835152 1.1500606-1.2544243 2.0538182-2.3147879 2.709697-2.0935758 1.2952727-4.776 1.1046061-6.7072727-.4809697-1.63806063-1.3444848-2.82751518-3.9486061-1.54509094-6.966303-.90072727-.4181818-.68266666-1.1290909-.40460606-1.8299394.756-1.90557578 2.130303-3.13600002 4.0961212-3.70436366.1705455-.04933333.3430303-.09212121.5088485-.13648485-.3026667-3.25587879-4.13030303-5.32327273-7.19212121-3.89006061-1.94351515.9099394-3.01490909 2.48460607-3.05127273 4.62606061-.0590303 3.46775761-.01454545 6.93709091-.01212121 10.40581821 0 .0586666.01987879.1172121.04424242.252606.27721212.0127273.56836364.0276364.85951515.0390303.62630303.0243637 1.00812122.3453334 1.0309091.8690909.02339393.5402425-.37224243.9104243-1.02351516.9423031-.27648484.0134545-.55418181.002303-.87454545.002303v2.0461818c.72084848.179394 1.88278788-.2829091 1.86836364.9670303-.01381819 1.1841212-1.10254546.8162425-1.8629091.9361212v40.5763637z" fill="#0033a0" mask="url(#b)"/><g fill-rule="nonzero" transform="translate(9 27)"><path d="m52.0293778 20.5981076c-2.5975819-4.6589602-8.1480493-6.7339029-13.1188635-4.9042571l-5.6192679-12.30830212h5.2628565c.3564114 0 .8104632-.41034465.8104632-.8960616s-.3792175-.8960616-.8104632-.8960616h-6.647399c-.4894701 0-.8863198.40121158-.8863198.8960616 0 .12959291.0278083.25772972.0815414.37544981l2.28316 5.00091978h-13.9462431l-1.2186899-2.6881848h.7613488c1.2638921.00257618 2.2904721-1.03125489 2.2930203-2.30903873.0023266-1.18313733-.8786754-2.17742968-2.0421918-2.30478243l-4.8694413-.5483897c-1.4058141-.15490665-2.6697063.87175593-2.822818 2.29313364-.1532226 1.4212657.8622784 2.69904954 2.2682033 2.85384418.0911802.01008069.1829143.01512104.2746484.01523304h2.1874374l1.4952216 3.29840275-3.3990367 7.25809898c-5.49640182-2.0849114-11.62397422.7296181-13.68621897 6.2864321-2.06224476 5.556814.72168595 11.7517359 6.21808782 13.8366472 5.49640185 2.0849113 11.62397425-.7296182 13.68621905-6.2864322.344446-.9280958.5601541-1.8998746.6411416-2.8876705h1.9436995c.4788343 1.9143236 2.4020376 3.0737153 4.2954384 2.589618 1.8935116-.4840972 3.0402987-2.4283269 2.5614644-4.3426505-.1842437-.7365626-.5957177-1.3944958-1.174817-1.8787051l5.8071678-12.3952201 2.6412332 5.7867658c-5.2023652 2.9647318-7.0424761 9.6317661-4.109976 14.8911997 2.9325001 5.2595455 9.5270523 7.1198814 14.7293067 4.1551496 5.2023653-2.9646198 7.0424761-9.6316541 4.1100868-14.8911997zm-37.9465664-17.21267123c-.4352938 0-.7883815-.35652051-.7888247-.79659876.0004432-.43873416.3513151-.79458262.7852794-.79659876.0301349 0 .0593835 0 .088632.00448031l4.8694414.54749363c.2834007.03360231.4862572.29323616.4529094.57975186-.0303564.26142597-.2483911.45923157-.5087476.46147172zm1.1229673 14.73931723c2.3899615 1.454084 3.9635116 3.9607043 4.2472448 6.7661611h-7.417611zm-4.5707516 16.622888c-4.89503382.0161918-8.87616109-3.9823711-8.89238519-8.9310952-.01601578-4.9487242 3.93907584-8.9737209 8.83399889-8.9901236 1.0322303-.0034227 2.0570376.1754536 3.0284442.5286139l-3.76774576 8.0484253c-.20950386.4472467-.02071773.9815234.42166666 1.19333.1175482.0563399.2459538.0856859.3760212.0862459h8.8179964c-.4598892 4.5760746-4.2684057 8.059178-8.8179964 8.0646037zm12.5343356-9.8567269h-1.9436995c-.2927071-3.4973284-2.2553517-6.6301838-5.2576494-8.3925129l2.7617727-5.8951893 5.6307901 12.4194138c-.5835309.4788329-1.0008767 1.1332939-1.1912139 1.8682884zm3.419422 2.6881848c-.9790511 0-1.7726397-.8023111-1.7726397-1.7921232 0-.989812.7935886-1.7921232 1.7726397-1.7921232s1.7726398.8023112 1.7726398 1.7921232c0 .9898121-.7935887 1.7921232-1.7726398 1.7921232zm.6665126-5.3073728c-.219475-.0444671-.4427168-.0675407-.6665126-.0689968-.2082851.0030242-.4157948.0243057-.6204239.0636204l-5.7167631-12.60848274h12.9136804zm15.3608096 12.5439325c-4.9135358.0204192-8.9132758-3.9899045-8.9336269-8.957446-.0129966-3.1916594 1.6479668-6.1513508 4.364648-7.7772546l3.6906359 8.0833717c.1960983.4534071.7185838.6603974 1.1671725.4621437.4484778-.1982536.6532177-.7264819.4571194-1.1798891-.0046531-.0108647-.0095279-.0216175-.014735-.0321462l-3.6924086-8.087852c.9281985-.3285186 1.9042582-.4975382 2.8876301-.5000806 4.9135358-.0204192 8.9132758 3.9899045 8.9336286 8.957446.0203071 4.9674295-3.9465282 9.0111315-8.860064 9.0317071z" fill="#0033a0"/><path d="m10.5321364 31.0110409c-.4465804.0006708-.89094948-.0740181-1.31907055-.2218305-.4062968-.1442346-.83614843.1218726-.96017183.5943805-.12402339.472508.10479497.9724093.51109176 1.1166438.00355726.0012299.00711452.0024599.01076793.0036898.57041148.1970087 1.16245494.296743 1.75747879.2960755.4247561 0 .7691374-.4005058.7691374-.8944812s-.3444774-.8944779-.7692335-.8944779zm-3.64092567-1.8225631c-1.15867945-1.0256031-1.80968489-2.4347539-1.80417215-3.9047166-.00025058-.5290863.08381883-1.0553257.24957715-1.5624332.15773977-.4825095-.14470964-.9899586-.67556224-1.1333335-.53085259-.1433749-1.08914364.1315313-1.24688341.6140408-.84570569 2.5912249-.0476101 5.3951777 2.07479796 7.2883184.18730815.1663786.43876465.2596463.70062019.2596463.55353003-.0001139 1.00231786-.4080319 1.00219259-.9111537 0-.2446142-.10837564-.4789791-.30057009-.6503685zm38.90628727-10.1864938c-.5582668-.2715129-1.1536741-.4549197-1.7657706-.5440114-.4221488-.0613983-.8131381.2384978-.8732384.6697647-.0601003.431267.2334552.8307014.6556041.8920998.4580353.0662275.9035297.2031173 1.3212409.4060374.1033184.0495721.2161873.0748016.3303102.0741255.4262006-.0025761.7697271-.3575633.7672325-.793068-.0017501-.3004874-.170571-.5738728-.4353787-.704948zm2.1550037 2.8926993c-.3091571-.4011782-.903937-.4895925-1.3285081-.1973873-.4123284.2837794-.5141922.8246005-.2309467 1.2255541.6665719.903578 1.0225602 1.9793784 1.019351 3.0809054.0002377.5218351-.0792802 1.040974-.23582 1.5413515-.1494082.4754372.1370466.9754777.639947 1.1171427.0878382.0251649.1792422.0379721.2710028.0377503.4206487-.0002276.7911381-.2615383.9109498-.6426071.6606288-2.097676.2757573-4.3655522-1.0459758-6.1627096z" fill="#00aec7"/></g></g></g></svg>