<svg height="53" viewBox="0 0 64 53" width="64" xmlns="http://www.w3.org/2000/svg" xmlns:xlink="http://www.w3.org/1999/xlink"><mask id="a" fill="#fff"><path d="m0 0h64v64h-64z" fill="#fff" fill-rule="evenodd"/></mask><g fill="none" mask="url(#a)" transform="translate(0 -11)"><g transform="matrix(-.7193398 .69465837 .69465837 .7193398 29.866112 -2.682779)"><path d="m64.4196211 23.8723393c-.3813171-.5227662-1.1141968-.6376649-1.6374206-.2563476l-7.8803145 5.5170038c.914154-1.3394164 1.4996338-2.8866576 1.6964721-4.5428465.6628418-5.5883789-3.3444213-10.6745911-8.9328002-11.3378906-2.9599-.3506471-5.7788086.6083679-7.8739929 2.4179076l-6.463623-5.93536381v-2.69210813c.3218077-.0604248.6472777-.10070801.9754943-.11810297l.7273865-.03891c1.4501953-.07736203 2.6701355-1.17416379 2.9013061-2.60742187l.1002503-.61935422c.1235961-.76446527-.0416565-1.54312125-.4646302-2.19177246-.894928-1.37237543-2.7122497-1.81365961-4.1368102-1.0038757l-6.7543031 3.83743289c-.8125305.46142578-1.2785339 1.36047363-1.1883544 2.29019168.0709533.7292175.4660033 1.37374875 1.0830689 1.76788324.3877257.24765012.8280944.37445074 1.2730407.37445074.2636719 0 .5291748-.0448609.7864379-.13458258l2.3533632-.82443234v1.62002555l-18.2725526 5.84884648-3.56918335-1.6708374-.15975949-.5685424c-.17532351-.6230164-.82214355-.9860231-1.44561773-.8106995-.62301633.1753235-.98556516.8226013-.81024164 1.4456176l.30487054 1.0848999c.09246832.3277588.32272336.5992127.63125614.743866l3.79623413 1.7770386v2.7333068c0 .0022889.0004577.00412.0004577.0064088v4.0979004c-1.86264035.2119446-3.63510129.9338378-5.14434808 2.1231079-2.1414184 1.6868591-3.49777219 4.1070556-3.81912235 6.81427-.6523132 5.4986572 3.21670536 10.5111695 8.66455083 11.3021851l-2.17254637 1.5554809c-.56350711.4032898-1.22451785.6678772-1.91116336.7644653l-6.06811524.8537293c-.64132687.0901794-1.08764648.6829834-.99746704 1.3238525.08239743.5854798.58410642 1.0084533 1.15905759 1.0084533.05447391 0 .10940555-.0036621.16479492-.011444l6.06857309-.8537293c1.05926508-.1487731 2.07916254-.5570983 2.94891351-1.1796569l4.427948-3.1700135c.8766174-.6275939 1.9496155-.9040832 3.0207825-.7763672l4.4618225.5291749c1.9857788.2362059 3.9523315-.4229737 5.3952026-1.8077088l3.0249023-2.9026794c.9672548-.9283448 2.283783-1.3499451 3.6108399-1.156311l2.8999329.4229735c1.9381714.2824403 3.8928222-.2975463 5.3627014-1.592102l2.8436279-2.5048828c.8340454-.7347107 1.6442872-1.1672973 2.3460388-1.253357l3.7825013-.211029c.0210571-.0009155.0416564-.0027465.0627136-.0050354 1.1563111-.1268006 2.2636413-.5566407 3.2020569-1.2423706l9.3694197-6.6032772c.5232239-.3813171.6376647-1.1146545.2563476-1.6374206zm-17.9621016-8.3477422c.3076172 0 .6193543.0183106.9320069.0553895 4.3052673.5108643 7.3919677 4.4288636 6.8811035 8.7341309-.5108643 4.3052673-4.4306946 7.3924255-8.7336731 6.8811035-2.6051331-.3089905-4.7625733-1.8667603-5.9481811-4.0022278l7.2830199-2.7072144c.3822327-.1419067.6632996-.4724122.7415772-.8729553.0782776-.4000855-.0572205-.8125305-.3575134-1.0885621l-5.723877-5.2555846c1.3623047-1.0977173 3.0867005-1.7440797 4.9255371-1.7440797zm-11.1579895 10.7112122c-.1203919-.152893-.2513122-.2970886-.3927612-.4307556-.4431152-.420227-.9809875-.7411194-1.5788268-.9242249v-11.9641113l4.8765563 4.478302c-.9942627 1.3659668-1.6635132 2.9960632-1.8763733 4.7900391-.1487732 1.2519837-.0622559 2.4787903.2233887 3.6364746l-1.2194824.4536438c-.0105286-.0137329-.0219727-.0260925-.0325013-.0393677zm-4.5167541 1.544037c.0732422-.145569.2275086-.2796937.3538513-.3785706.1409912-.1107789.2989197-.1959229.4673767-.2568055.3488159-.1249695.7324219-.1235962 1.0826111-.0064087.7269287.2435303 1.198883.9851074 1.1164856 1.7463685-.067749.6211852-.4953004 1.1650085-1.0826111 1.3783264-.5932617.2156066-1.274414.065918-1.7243957-.3758241-.5621338-.5520629-.6559754-1.4520263-.2133179-2.107086zm7.8726196-5.3187562c.152893-1.2858582.6106567-2.4618531 1.2904358-3.4671021l4.3148803 3.9619446-5.4917907 2.041626c-.1707458-.813446-.2165222-1.6662598-.1135254-2.5364685zm-10.7991028-16.07437135c-.0068664.00228879-.0119018.00411984-.0228881-.00274664-.0109864-.00732422-.0114442-.01235953-.0123597-.02014148-.0009154-.01007086.0041199-.02059946.0132751-.02563477l6.754303-3.83697516c.352478-.20050054.8143616-.08102414 1.0263061.26367188.1579286.25680539.1034547.520935.0590516.79650879-.0357056.22018429-.048523.45959472-.1776123.64910894-.1593017.23345942-.4042053.32501215-.6752014.33966059-.2142334.01098633-.4284668.02243039-.6427002.03387457-.8029174.04302973-1.5957642.18493641-2.3625183.42251578-.0054931.00183105-.0109863.00366211-.0164795.00549316-.1071167.03341684-.2137756.06820676-.3199768.10574344zm3.1278993 18.49411005c-.7067872.2169801-1.3549805.6367493-1.8415833 1.1938477l-15.339203-6.8563842v-1.863556l17.1807863-5.4991149zm-26.16027848 8.4150696c.2471925-2.0855713 1.29226687-3.9500427 2.94158941-5.2496338 1.08993527-.8587646 2.35794067-1.4012145 3.69415277-1.6007995v3.4222412c0 .6472778.5245972 1.171875 1.171875 1.171875.6468202 0 1.171875-.5245972 1.171875-1.171875v-3.4176636c4.1757203.6280518 7.1365357 4.4760132 6.6357422 8.6984253-.2476501 2.0855713-1.2922668 3.9500427-2.942047 5.2496338-1.6497803 1.299591-3.7078858 1.8795776-5.7920839 1.6314698-4.30526727-.5104066-7.39196762-4.4288636-6.88110348-8.7336732zm36.18392948 2.2750854c-.9526061.8390809-2.2187805 1.2153626-3.4753417 1.0317994l-2.8999329-.4229736c-2.0480346-.2989197-4.0786744.3520202-5.5718995 1.7843628l-3.0249023 2.9026794c-.9352112.8972168-2.2096253 1.3243103-3.4963989 1.1714172l-2.9516601-.3501892c1.770172-1.6438293 2.8907775-3.8374328 3.1787109-6.2631225.6632995-5.5883789-3.3439637-10.6745911-8.9323426-11.3378906-.0105285-.0009156-.0205993-.0018311-.0306702-.0027467v-2.2988891l14.3833924 6.4297485c-.0196838.1606751-.0311279.3240967-.0311279.4902649 0 2.2059632 1.7944336 4.0003968 4.0003968 4.0003968 2.2055053 0 3.9999389-1.7944336 3.9999389-4.0003968 0-.0782776-.0027467-.1560973-.0073243-.2334594l1.2226868-.4545594c1.2670899 2.4801636 3.5270691 4.4064332 6.316681 5.1928711z" fill="#0033a0"/><path d="m12.053833 34.8275756c.4096985.273285.9599304.2563477 1.3536072-.0379943.3890991-.2906799.5603027-.8120728.4174804-1.2767029-.1400756-.4568481-.5502319-.7868957-1.0263061-.8271789-.4934693-.0416565-.9727479.2471924-1.1682129.7017517-.2215576.5149841-.0421142 1.1265563.4234314 1.4401244zm26.3612366 11.441803c-.4408264.5209351-.9686279.5786133-1.3902284.5039978-.4765319-.0846862-.9580993.1171875-1.2144469.5273438-.4380798.6999207-.0325012 1.6204835.7795715 1.7710877.2458191.0453185.5039978.0723266.7699586.0723266.9255981 0 1.9377136-.3240967 2.7932738-1.3009643.4261781-.4870606.4302979-1.2313843-.0434875-1.6726685-.4930115-.4595947-1.2638855-.4096984-1.6946411.0988769zm15.1171875-6.8550109c-1.9152832-.6820679-3.2963562.2352905-3.447876.3424071-.528717.3735352-.6546021 1.1045839-.2810669 1.6333008.2284241.3231812.5905152.4957581.9580993.4957581.2339173 0 .4701233-.0695801.6752015-.2146911.0050354-.0032044.5332946-.3250123 1.3092041-.0489808.6092834.2169801 1.2799072-.1011657 1.4968872-.7109069.2174377-.6097412-.1011658-1.2799072-.7104492-1.4968872zm-4.1622182 8.2432151c-.1858521-.4541016-.6550598-.7484435-1.1448669-.722351-.4875184.0265502-.9159852.3634643-1.0583496.8299255-.1409912.4627991.0260925.9741211.4078674 1.2693786.3913879.3030396.9530639.3208924 1.3641357.0453186.4582215-.3067016.6436157-.9127808.4312134-1.4222717zm-19.2494046 8.8577888c-.1858521-.4541016-.6550598-.7484435-1.1448669-.722351-.4875184.0265502-.9159852.3634643-1.0583496.8299255-.1409912.4627991.0260925.9741211.4078674 1.2693786.3913879.3030396.9530639.3208924 1.3641357.0453186.4582215-.3067016.6436157-.9127808.4312134-1.4222717zm-6.8305341-8.4346221c-.7333375-.0668335-1.3311769.0292968-1.8095399.1963807-.8862305.3089903-1.0263061 1.506958-.2481079 2.0310973.0260925.017395.0517273.0347901.0769043.0517273.284729.1927185.6404114.2297974.9672546.1235963.189972-.0613404.4513549-.1007081.8015442-.0686647.6422424.0585938 1.214447-.4165648 1.2730408-1.0610961.0585937-.6445312-.4165649-1.2144471-1.0610961-1.2730408z" fill="#00aec7"/></g></g></svg>