<svg height="64" viewBox="0 0 64 64" width="64" xmlns="http://www.w3.org/2000/svg" xmlns:xlink="http://www.w3.org/1999/xlink"><mask id="a" fill="#fff"><path d="m0 0h64v64h-64z" fill="#fff" fill-rule="evenodd"/></mask><g fill="none" mask="url(#a)"><path d="m62.5 61.3c.6627417 0 1.2.5372583 1.2 1.2 0 .6213203-.4721997 1.1323525-1.077307 1.1938045l-.122693.0061955h-61c-.6627417 0-1.2-.5372583-1.2-1.2 0-.6213203.47219968-1.1323525 1.07730697-1.1938045l.12269303-.0061955z" fill="#0033a0"/><g transform="translate(2 22)"><path d="m57.8104198 22.8867862c-2.8862022-5.1766225-9.0533881-7.4821143-14.576515-5.4491745l-6.2436311-13.67589128h5.8476185c.8157835 0 1.4771997.66868597 1.4771997 1.493436s-.6614162 1.49343599-1.4771997 1.49343599h-.4924c-.5438557 0-.9847998.44579065-.9847998.995624s.4409441.995624.9847998.995624h.4924c1.9036181 0 3.4467994-1.56014281 3.4467994-3.48468399 0-1.92454119-1.5431813-3.484684-3.4467994-3.484684h-7.3859989c-.5438558 0-.9847999.44579065-.9847999.995624 0 .14399212.0308981.28636635.0906016.41716646l2.5368444 5.55657753h-15.4958257l-1.3540998-2.98687199h.8459431c1.4043246.00286241 2.544969-1.14583877 2.5478003-2.56559859.0025851-1.31459704-.9763059-2.41936632-2.2691019-2.56086938l-5.4104904-.60932189c-1.5620157-.17211849-2.9663403.9686177-3.1364645 2.54792627-.1702472 1.57918411.9580872 2.99894393 2.520226 3.17093798.1013113.01120077.203238.01680115.3051648.01692561h2.4304861l1.6613573 3.66489193-3.7767074 8.06455435c-6.10711321-2.3165681-12.91552699.8106869-15.20691005 6.9849246-2.29138306 6.1742378.80187328 13.0574843 6.90898647 15.3740525 6.10711318 2.3165681 12.91552698-.8106869 15.20690998-6.9849247.3827179-1.0312175.6223935-2.1109717.7123796-3.2085227h2.1596661c.5320381 2.1270262 2.6689307 3.4152392 4.7727094 2.8773533 2.1039018-.5378858 3.3781097-2.698141 2.8460716-4.8251672-.2047153-.818403-.6619086-1.5494399-1.3053522-2.0874502l6.4524086-13.7724668 2.9347036 6.4297398c-5.7804059 3.2941465-7.8249735 10.7019624-4.5666401 16.5457774 3.2583335 5.8439395 10.5856137 7.9109794 16.3658964 4.616833 5.7804058-3.294022 7.8249734-10.7018379 4.5667631-16.5457775zm-42.1628516-19.12519023c-.4836598 0-.8759794-.3961339-.8764718-.88510974.0004924-.4874824.39035-.88286958.8725326-.88510973.0334832 0 .0659816 0 .09848.00497812l5.4104904.60832626c.3148898.0373359.5402858.32581796.5032327.64416873-.0337294.2904733-.2759901.5102573-.5652751.51274636zm1.2477414 16.37701913c2.6555128 1.6156488 4.4039019 4.4007825 4.7191609 7.5179568h-8.2417899zm-5.0786128 18.4698756c-5.43892649.0179909-9.86240123-4.4248568-9.88042801-9.9234392-.01779531-5.4985824 4.37675093-9.970801 9.81555431-9.9890262 1.1469225-.003803 2.2855974.1949485 3.364938.5873488l-4.1863842 8.9426947c-.232782.4969409-.0230197 1.0905817.4685186 1.3259223.130609.0625999.2732819.0952065.4178013.0958288h9.7977737c-.510988 5.0845273-4.742673 8.9546422-9.7977737 8.9606708zm13.9270395-10.9519188h-2.1596661c-.3252301-3.8859204-2.5059463-7.3668709-5.8418327-9.3250143l3.0686363-6.5502103 6.2564335 13.7993486c-.6483676.5320366-1.1120852 1.2592154-1.323571 2.075876zm3.7993578 2.986872c-1.0878345 0-1.9695997-.8914568-1.9695997-1.991248 0-1.0997911.8817652-1.991248 1.9695997-1.991248 1.0878346 0 1.9695997.8914569 1.9695997 1.991248 0 1.0997912-.8817651 1.991248-1.9695997 1.991248zm.7405695-5.8970809c-.243861-.0494079-.4919075-.0750452-.7405695-.0766631-.2314279.0033603-.4619942.0270063-.6893599.0706893l-6.351959-14.0094252h14.3485338zm17.0675663 13.9377028c-5.4594842.022688-9.9036397-4.4332272-9.9262522-9.9527178-.0144406-3.5462882 1.8310743-6.8348343 4.8496089-8.641394l4.1007066 8.9815241c.217887.5037857.7984265.7337749 1.2968583.513493.4983088-.2202818.7257975-.8072021.5079106-1.3109879-.0051702-.0120719-.0105866-.0240194-.0163723-.035718l-4.1026762-8.9865022c1.0313316-.3650206 2.1158425-.5528202 3.2084779-.5556451 5.4594842-.022688 9.9036397 4.4332272 9.9262539 9.9527178.0225635 5.5193661-4.3850313 10.0123683-9.8445155 10.0352301z" fill="#0033a0"/><path d="m11.7023738 34.4567121c-.4962004.0007454-.9899439-.0822423-1.465634-.2464784-.45144086-.1602606-.92905378.1354141-1.06685755.6604229-.13780378.5250088.11643884 1.0804547.56787973 1.2407153.00395251.0013666.00790502.0027332.01196436.0040997.63379056.2188986 1.29161656.3297145 1.95275426.3289728.4719512 0 .854597-.4450064.854597-.993868s-.3827526-.9938643-.8547038-.9938643zm-4.04547299-2.0250701c-1.28742161-1.139559-2.01076099-2.7052821-2.00463572-4.338574-.00027842-.5878737.09313204-1.1725841.27730794-1.7360369.17526642-.5361216-.16078849-1.099954-.7506247-1.2592595-.58983622-.1593054-1.21015961.146146-1.38542602.6822676-.93967299 2.8791388-.05290011 5.9946419 2.30533107 8.0981315.20812017.1848652.48751627.288496.77846687.288496.61503338-.0001266 1.11368651-.4533689 1.11354733-1.012393 0-.2717935-.12041738-.5321991-.33396677-.7226317zm43.22920809-11.3183265c-.6202964-.301681-1.2818601-.5054662-1.9619674-.604457-.4690542-.0682204-.9034868.2649975-.9702648.744183-.0667781.4791855.2593947.9230015.7284489.9912219.5089282.0735861 1.0039219.2256859 1.4680455.4511527.1147983.0550801.2402081.0831129.3670114.0823617.4735561-.0028624.8552522-.3972925.8524805-.8811867-.0019445-.3338749-.1895234-.6376365-.4837541-.7832756zm2.3944486 3.2141104c-.343508-.4457536-1.0043745-.5439917-1.4761201-.2193192-.4581427.3153104-.5713247.9162228-.2566075 1.3617268.7406354 1.0039755 1.136178 2.1993093 1.1326122 3.4232282.0002641.5798167-.0880891 1.1566377-.2620222 1.7126127-.1660091.5282636.152274 1.0838641.7110522 1.2412697.097598.027961.199158.0421912.3011142.0419448.4673875-.0002529.8790423-.2905982 1.0121665-.714008.734032-2.330751.306397-4.8506135-1.1621953-6.847455z" fill="#00aec7"/></g><path d="m10 13.3333333c1.838 0 3.3333333-1.4953333 3.3333333-3.3333333s-1.4953333-3.33333333-3.3333333-3.33333333-3.33333333 1.49533333-3.33333333 3.33333333 1.49533333 3.3333333 3.33333333 3.3333333zm0-4.44444441c.6126667 0 1.1111111.49844444 1.1111111 1.11111111 0 .6126667-.4984444 1.1111111-1.1111111 1.1111111-.61266667 0-1.11111111-.4984444-1.11111111-1.1111111 0-.61266667.49844444-1.11111111 1.11111111-1.11111111zm0-4.44444445c.6136667 0 1.1111111-.49744444 1.1111111-1.11111111v-2.22222222c0-.61366667-.4974444-1.11111111-1.1111111-1.11111111-.61366667 0-1.11111111.49744444-1.11111111 1.11111111v2.22222222c0 .61366667.49744444 1.11111111 1.11111111 1.11111111zm-1.11111111 12.22222226v2.2222222c0 .6136667.49744444 1.1111111 1.11111111 1.1111111.6136667 0 1.1111111-.4974444 1.1111111-1.1111111v-2.2222222c0-.6136667-.4974444-1.1111111-1.1111111-1.1111111-.61366667 0-1.11111111.4974444-1.11111111 1.1111111zm-7.77777778-5.5555556h2.22222222c.61366667 0 1.11111111-.4974444 1.11111111-1.1111111 0-.61366667-.49744444-1.11111111-1.11111111-1.11111111h-2.22222222c-.61366667 0-1.11111111.49744444-1.11111111 1.11111111 0 .6136667.49744444 1.1111111 1.11111111 1.1111111zm14.44444449-1.1111111c0 .6136667.4974444 1.1111111 1.1111111 1.1111111h2.2222222c.6136667 0 1.1111111-.4974444 1.1111111-1.1111111 0-.61366667-.4974444-1.11111111-1.1111111-1.11111111h-2.2222222c-.6136667 0-1.1111111.49744444-1.1111111 1.11111111zm-11.05566671 3.9287778-1.57111111 1.5711111c-.43388889.4338889-.43388889 1.1374444 0 1.5714444.43377778.4337778 1.13744444.4338889 1.57144444 0l1.57111111-1.5711111c.43388889-.4338889.43388889-1.1374444 0-1.5714444-.434-.4338889-1.13755555-.4338889-1.57144444 0zm11.00022221-7.85755558 1.5711111-1.57111111c.4338889-.43388889.4338889-1.13744444 0-1.57144444-.4338889-.43388889-1.1374444-.43388889-1.5714444 0l-1.5711111 1.57111111c-.4338889.43388889-.4338889 1.13744444 0 1.57144444.4338889.43388889 1.1375555.434 1.5714444 0zm-.0002222 10.99999998c.4338889.4337778 1.1374444.4338889 1.5714444 0 .4338889-.4338889.4338889-1.1374444 0-1.5714444l-1.5711111-1.5711111c-.4338889-.4338889-1.1374444-.4338889-1.5714444 0-.4338889.4338889-.4338889 1.1374444 0 1.5714444zm-11.00000001-10.99999998c.43377778.43377778 1.13744444.43388889 1.57144444 0 .43388889-.43388889.43388889-1.13744444 0-1.57144444l-1.57111111-1.57111111c-.43388889-.43388889-1.13744444-.43388889-1.57144444 0-.43388889.43388889-.43388889 1.13744444 0 1.57144444z" fill="#00aec7" transform="translate(22)"/></g></svg>