<svg height="64" viewBox="0 0 64 64" width="64" xmlns="http://www.w3.org/2000/svg"><g fill="none" fill-rule="evenodd"><g fill-rule="nonzero" transform="translate(0 21)"><path d="m51.7114257 18.1040039c-.6547851 0-1.2978515.0522461-1.9257812.1513672l-4.5947265-17.3256836c-.1455079-.5478515-.6416016-.9296875-1.2084961-.9296875h-9.4614258c-.6904297 0-1.25.55957025-1.25 1.25s.5595703 1.25 1.25 1.25h8.5l.8334961 3.14306638c-5.4057617.2109375-10.1303711 1.89599612-14.0878907 4.13818362-3.5688476 1.996582-6.6132812 4.5053711-9.1318359 7.0507813v-9.3051758c0-.6899415-.5600586-1.25-1.25-1.25h-8.6733398c-.6899414 0-1.25000005.5600585-1.25000005 1.25 0 .69042963.56005865 1.25 1.25000005 1.25h7.4233398v10.777832c-.0039062.0043945-.0078125.008789-.0117187.0136719-1.7460938-.9389649-3.7368164-1.4643555-5.8344727-1.4643555-6.77587895 0-12.2885742 5.5126954-12.2885742 12.2885742 0 6.7758789 5.51269525 12.2885743 12.2885742 12.2885743 5.2915039 0 9.9648438-3.3935548 11.6391602-8.3457031h10.1455078c2.1357422 0 3.8730468-1.7373048 3.8730468-3.8735353 0-1.6870116-1.0844726-3.1245116-2.5927734-3.6547851 1.4677734-2.4238281 3.2573243-5.3178711 4.7827149-7.605957 1.9765625-2.9648438 4.6630859-4.1171875 6.109375-4.543457l1.1240234 4.2397461c-4.6391601 1.7578125-7.946289 6.2470702-7.946289 11.4951171 0 6.7758789 5.5126952 12.2885743 12.2885741 12.2885743 6.775879 0 12.288086-5.5126954 12.288086-12.2885743s-5.5126953-12.2885742-12.2885743-12.2885742zm-21.1533202-5.8911133c3.3291015-1.9262695 7.1499022-3.37499998 11.4550781-3.88525385-3.7680664 4.80712885-11.7104492 6.68164065-16.4189453 7.38867185 1.465332-1.2202148 3.125-2.4243164 4.9638672-3.503418zm-18.2695313 27.9682618c-5.39746095 0-9.7885742-4.3911134-9.7885742-9.7885743 0-5.3974608 4.39111325-9.7885742 9.7885742-9.7885742 4.1713868 0 7.8144532 2.6020508 9.2016602 6.4438476-1.2167969.6538086-2.0463868 1.9389649-2.0463868 3.4140625 0 1.4580079.8095704 2.7294922 2.0029298 3.390625-1.4223634 3.7700196-5.0571289 6.3286134-9.1582032 6.3286134zm21.7841797-8.3457032h-10.7553712c-.7573241 0-1.3735351-.6162109-1.3735351-1.3735352 0-.7568359.616211-1.3730468 1.3735351-1.3730468h10.7553712c.7573242 0 1.3735351.6162109 1.3735351 1.3730468 0 .7573243-.6162109 1.3735352-1.3735351 1.3735352zm3.9833985-14.0209961c-.8569337 1.2851563-1.7934572 2.7548829-2.7104493 4.2260743h-5.4707031c-.6904297 0-1.25.5600586-1.25 1.25 0 .6904296.5595703 1.25 1.25 1.25h3.930664c-.4375.7172851-.8554687 1.4086913-1.2402343 2.0483398h-8.5903321c-.7236327-2.2382812-2.0488281-4.1611328-3.7700195-5.6079102.6796875-.7885743 1.4140625-1.5888671 2.2026368-2.3857421 2.7949218-.1918947 16.9887695-1.5825197 22.2529296-9.67968753l.9042969 3.34130863c-1.8398438.5424804-5.1157226 1.9672851-7.508789 5.5576171zm13.6552733 22.3666993c-5.3974608 0-9.7885742-4.3911134-9.7885742-9.7885743 0-4.0898437 2.522461-7.5996093 6.0922852-9.0615234l1.2070313 4.5527343c-1.5859375.8789063-2.6625978 2.5703125-2.6625978 4.5087891 0 2.8408204 2.3110353 5.1518555 5.1518555 5.1518555 2.8408204 0 5.1518555-2.3110351 5.1518555-5.1518555 0-2.8408203-2.3110351-5.1518555-5.1518555-5.1518555-.024414 0-.0483397.0014649-.0727538.0014649l-1.2070313-4.5517578c.4189454-.0546875.8457031-.0864258 1.2797851-.0864258 5.397461 0 9.7885743 4.3911133 9.7885743 9.7885742s-4.3911133 9.7885743-9.7885743 9.7885743zm0-12.4404298c1.4624024 0 2.6518555 1.1894532 2.6518555 2.6518555 0 1.4624024-1.1894531 2.6518555-2.6518554 2.6518555s-2.6518555-1.1894531-2.6518555-2.6518555c0-1.4624023 1.1894532-2.6518555 2.6518555-2.6518555z" fill="#0033a0"/><path d="m12.2885742 25.2407226c-2.84082032 0-5.1523437 2.3110352-5.1523437 5.1518555 0 2.8408204 2.31152338 5.1518555 5.1523437 5.1518555 2.8408203 0 5.1518555-2.3110351 5.1518555-5.1518555 0-2.8408203-2.3110352-5.1518555-5.1518555-5.1518555zm0 7.803711c-1.4624023 0-2.6523437-1.1894531-2.6523437-2.6518555 0-1.4624023 1.1899414-2.6518555 2.6523437-2.6518555s2.6518555 1.1894532 2.6518555 2.6518555c0 1.4624024-1.1894532 2.6518555-2.6518555 2.6518555zm13.3168945-10.8017579-.0366211.0239258c-.5791015.3764649-.743164 1.1503907-.3666991 1.7294922.2392577.368164.6401366.5688477 1.0493164.5688477.2333983 0 .4697265-.0654297.6796875-.2021484l.0371093-.0239258c.5791015-.3764648.743164-1.150879.3666993-1.7294922-.3759766-.5791015-1.1503908-.7426758-1.7294923-.3666993z" fill="#00aec7"/></g><path d="m11.7103687 8.93762673c-1.3512673 0-2.57799543.00748848-3.80449312-.00230415-1.07672811-.00852534-1.62465438-.55299539-1.63767282-1.63617511-.01290322-1.07430876.00195853-2.14896314-.00057603-3.2233871-.00034562-.15414747-.03029954-.30817972-.04642857-.46232719-.03640553-.00276498-.07269586-.00552995-.10910139-.00817972-1.16843318 2.45184331-2.33686636 4.90368663-3.54343318 7.43525344 1.36267282 0 2.58963134-.0059908 3.81635945.0019585 1.04976959.0067973 1.58698157.540553 1.61117512 1.5970046.01313364.5752305.00380184 1.1511521.00403225 1.7267282.00034563.6578341.00011521 1.3156682.00011521 1.9735023.05057604.0085253.10126728.0171659.15172811.0256912 1.16854839-2.4389401 2.33686637-4.8779954 3.55829497-7.42776497m-5.44055303 3.83076037c-1.35633641 0-2.63698157.0032258-3.91762673-.0028802-.24735023-.0011521-.50691244.0026498-.73928571-.0671659-.85288019-.2563364-1.1952765-1.1707373-.77096775-2.0663594 1.00080646-2.11232722 2.01451613-4.21831801 3.02269586-6.32695856.43801843-.91612903.87327189-1.83341014 1.31324884-2.7485023.41774194-.8686636.95380185-1.19458526 1.69619816-1.0390553.75495392.15817972 1.12050691.7016129 1.12396313 1.69481567.00506913 1.41970046.00241936 2.83951613.0029954 4.25933179.0001152.22476959 0 .44953917 0 .73801844h3.16543783c.3070276.0001152.6140553-.00334102.9209677.00092166 1.2374424.01751152 1.8670507 1.00748847 1.3430876 2.13801843-.5076037 1.09504607-1.0400922 2.17857147-1.5615208 3.26716587-.9517281 1.9869816-1.89619814 3.9774194-2.85829491 5.9593318-.42292627.8714286-1.30529954 1.1718894-2.04746544.725-.53479263-.3221198-.70253456-.8271889-.69988479-1.4214285.0063364-1.4773042.00495391-2.9548388.00645161-4.4321429.00023041-.2048387 0-.4095622 0-.6781106" fill="#00aec7" transform="translate(25)"/></g></svg>